<?xml version="1.0" encoding="utf-8"?>
<!-- Generator: Adobe Illustrator 28.3.0, SVG Export Plug-In . SVG Version: 6.00 Build 0)  -->
<svg version="1.1" id="Layer_1" xmlns="http://www.w3.org/2000/svg" xmlns:xlink="http://www.w3.org/1999/xlink" x="0px" y="0px"
	 viewBox="0 0 800 400" style="enable-background:new 0 0 800 400;" xml:space="preserve">
<style type="text/css">
	.st0{fill:none;stroke:#000000;stroke-width:2;}
	.st1{font-family:'ArialMT';}
	.st2{font-size:24px;}
	.st3{font-size:18px;}
	.st4{fill:none;stroke:#999999;stroke-dasharray:5,5;}
	.st5{font-size:12px;}
	.st6{fill:none;stroke:#DDDDDD;}
	.st7{fill:#0000FF;fill-opacity:0.5;}
	.st8{font-family:'Arial-BoldMT';}
	.st9{fill:#FF0000;}
</style>
<line class="st0" x1="100" y1="350" x2="700" y2="350"/>
<text transform="matrix(1 0 0 1 343.6699 394.2041)" class="st1 st2">Effect Size</text>
<text transform="matrix(1 0 0 1 88.6592 370)" class="st1 st3">0.5</text>
<text transform="matrix(1 0 0 1 235.3223 370)" class="st1 st3">0.75</text>
<text transform="matrix(1 0 0 1 388.6592 370)" class="st1 st3">1.0</text>
<text transform="matrix(1 0 0 1 535.3223 370)" class="st1 st3">1.25</text>
<text transform="matrix(1 0 0 1 688.6592 370)" class="st1 st3">1.5</text>
<line class="st4" x1="400" y1="50" x2="400" y2="350"/>
<text transform="matrix(1 0 0 1 49.3066 83)" class="st1 st5">Study 1</text>
<line class="st6" x1="100" y1="80" x2="700" y2="80"/>
<line class="st0" x1="350" y1="80" x2="450" y2="80"/>
<rect x="380" y="75" class="st7" width="40" height="10"/>
<text transform="matrix(1 0 0 1 49.3066 123)" class="st1 st5">Study 2</text>
<line class="st6" x1="100" y1="120" x2="700" y2="120"/>
<line class="st0" x1="320" y1="120" x2="480" y2="120"/>
<rect x="360" y="115" class="st7" width="60" height="10"/>
<text transform="matrix(1 0 0 1 49.3066 163)" class="st1 st5">Study 3</text>
<line class="st6" x1="100" y1="160" x2="700" y2="160"/>
<line class="st0" x1="380" y1="160" x2="420" y2="160"/>
<rect x="390" y="155" class="st7" width="20" height="10"/>
<text transform="matrix(1 0 0 1 49.3066 203)" class="st1 st5">Study 4</text>
<line class="st6" x1="100" y1="200" x2="700" y2="200"/>
<line class="st0" x1="420" y1="200" x2="520" y2="200"/>
<rect x="450" y="195" class="st7" width="40" height="10"/>
<text transform="matrix(1 0 0 1 49.3066 243)" class="st1 st5">Study 5</text>
<line class="st6" x1="100" y1="240" x2="700" y2="240"/>
<line class="st0" x1="330" y1="240" x2="470" y2="240"/>
<rect x="370" y="235" class="st7" width="60" height="10"/>
<text transform="matrix(1 0 0 1 49.998 303)" class="st8 st5">Pooled</text>
<line class="st6" x1="100" y1="300" x2="700" y2="300"/>
<polygon class="st9" points="400,290 410,300 400,310 390,300 "/>
<rect x="600" y="3" class="st7" width="15" height="15"/>
<text transform="matrix(1 0 0 1 620 15)" class="st1 st5">Individual study</text>
<polygon class="st9" points="608,24 618,39 608,54 598,39 "/>
<text transform="matrix(1 0 0 1 622 42)" class="st1 st5">Pooled estimate</text>
</svg>
