<?xml version="1.0" encoding="utf-8"?>
<!-- Generator: Adobe Illustrator 28.3.0, SVG Export Plug-In . SVG Version: 6.00 Build 0)  -->
<svg version="1.1" id="Layer_1" xmlns="http://www.w3.org/2000/svg" xmlns:xlink="http://www.w3.org/1999/xlink" x="0px" y="0px"
	 viewBox="0 0 800 400" style="enable-background:new 0 0 800 400;" xml:space="preserve">
<style type="text/css">
	.st0{fill:none;stroke:#000000;stroke-width:2;}
	.st1{font-family:'ArialMT';}
	.st2{font-size:24px;}
	.st3{font-size:18px;}
	.st4{fill:none;stroke:#999999;stroke-dasharray:5,5;}
	.st5{font-size:12px;}
	.st6{fill:none;stroke:#DDDDDD;}
	.st7{fill:#0000FF;fill-opacity:0.5;}
	.st8{font-family:'Arial-BoldMT';}
	.st9{fill:#FF0000;}
</style>
<line class="st0" x1="100" y1="350" x2="700" y2="350"/>
<text transform="matrix(1 0 0 1 343.668 394)" class="st1 st2">Effect Size</text>
<text transform="matrix(1 0 0 1 87.6592 370)" class="st1 st3">0.5</text>
<text transform="matrix(1 0 0 1 235.3223 370)" class="st1 st3">0.75</text>
<text transform="matrix(1 0 0 1 388.6592 370)" class="st1 st3">1.0</text>
<text transform="matrix(1 0 0 1 535.3223 370)" class="st1 st3">1.25</text>
<text transform="matrix(1 0 0 1 688.6592 370)" class="st1 st3">1.5</text>
<line class="st4" x1="400" y1="50" x2="400" y2="350"/>
<text transform="matrix(1 0 0 1 49.3066 85)" class="st1 st5">Study 1</text>
<line class="st6" x1="100" y1="82" x2="700" y2="82"/>
<line class="st0" x1="450" y1="82" x2="550" y2="82"/>
<rect x="480" y="77" class="st7" width="40" height="10"/>
<text transform="matrix(1 0 0 1 49.3066 125)" class="st1 st5">Study 2</text>
<line class="st6" x1="100" y1="122" x2="700" y2="122"/>
<line class="st0" x1="480" y1="122" x2="600" y2="122"/>
<text transform="matrix(1 0 0 1 49.3066 165)" class="st1 st5">Study 3</text>
<line class="st6" x1="100" y1="162" x2="700" y2="162"/>
<line class="st0" x1="420" y1="162" x2="530" y2="162"/>
<rect x="460" y="157" class="st7" width="30" height="10"/>
<text transform="matrix(1 0 0 1 49.3066 205)" class="st1 st5">Study 4</text>
<line class="st6" x1="100" y1="202" x2="700" y2="202"/>
<line class="st0" x1="430" y1="202" x2="570" y2="202"/>
<rect x="480" y="197" class="st7" width="40" height="10"/>
<text transform="matrix(1 0 0 1 49.3066 245)" class="st1 st5">Study 5</text>
<line class="st6" x1="100" y1="242" x2="700" y2="242"/>
<line class="st0" x1="460" y1="242" x2="540" y2="242"/>
<rect x="490" y="237" class="st7" width="20" height="10"/>
<text transform="matrix(1 0 0 1 49.998 303)" class="st8 st5">Pooled</text>
<line class="st6" x1="100" y1="300" x2="700" y2="300"/>
<polygon class="st9" points="500,290 510,300 500,310 490,300 "/>
<rect x="607.5" y="6.1" class="st7" width="15" height="15"/>
<text transform="matrix(1 0 0 1 629.8999 16.1182)" class="st1 st5">Individual study</text>
<polygon class="st9" points="615,30.4 625,45.4 615,60.4 605,45.4 "/>
<text transform="matrix(1 0 0 1 631.0156 49)" class="st1 st5">Pooled estimate</text>
<rect x="520" y="117" class="st7" width="40" height="10"/>
</svg>
